<svg width="36" height="36" viewBox="0 0 36 36" fill="none" xmlns="http://www.w3.org/2000/svg">
<g clip-path="url(#clip0_2475_1659)">
<path d="M26.6228 20.7477C29.5048 15.053 27.2246 8.10022 21.5299 5.21826C15.8352 2.33629 8.88246 4.61646 6.00049 10.3112C3.11853 16.0059 5.3987 22.9586 11.0934 25.8406C16.7881 28.7225 23.7408 26.4424 26.6228 20.7477Z" fill="#84D8FF"/>
<path d="M28.0316 21.4592C31.2952 15.0104 28.7334 7.14192 22.3114 3.84642L22.2442 3.8124C21.7265 3.55041 21.5192 2.91834 21.7812 2.40064C22.0432 1.88296 22.6752 1.67567 23.1929 1.93762L23.2867 1.98509C30.7246 5.81263 33.6895 14.9326 29.9063 22.408C27.7535 26.6621 23.8772 29.4706 19.5561 30.4144V32.9502H21.4629C21.9895 32.9502 22.4163 33.377 22.4163 33.9036C22.4163 34.4302 21.9895 34.8571 21.4629 34.8571H14.7888C14.2622 34.8571 13.8353 34.4302 13.8353 33.9036C13.8353 33.377 14.2622 32.9502 14.7888 32.9502H16.6958V30.761C14.2888 30.8234 11.8329 30.3147 9.52972 29.1685L9.4358 29.1214C8.91811 28.8595 8.7108 28.2274 8.97281 27.7097C9.23475 27.192 9.86686 26.9847 10.3846 27.2467C16.8558 30.5217 24.7566 27.9305 28.0316 21.4592Z" fill="#FF9600"/>
<path fill-rule="evenodd" clip-rule="evenodd" d="M17.1681 27.0538C15.1379 27.2068 13.0414 26.8252 11.0923 25.8388C10.1555 25.3647 9.31106 24.7804 8.56688 24.1097C8.48932 23.5503 8.57627 22.9623 8.85214 22.4209C9.56932 21.0133 11.2918 20.4537 12.6993 21.1709L16.0974 22.9023C17.5049 23.6195 18.0645 25.3419 17.3474 26.7495C17.2932 26.8558 17.2333 26.9573 17.1681 27.0538ZM27.677 13.4378C28.1203 15.8388 27.8093 18.3992 26.6217 20.7459C25.9122 22.1477 24.956 23.3427 23.8327 24.3047L22.8428 23.8003C20.0276 22.3659 18.9083 18.921 20.3427 16.106C21.7164 13.4098 24.9344 12.2693 27.677 13.4378ZM19.0323 4.29366C20.6502 5.14031 21.2888 7.13389 20.4578 8.76498C19.6211 10.4071 17.6116 11.0601 15.9694 10.2234L15.8584 10.1668C15.8165 11.0007 15.6021 11.8394 15.1986 12.6315C13.666 15.6391 9.98559 16.8349 6.97794 15.3025C6.14428 14.8777 5.44981 14.2879 4.91406 13.5931C5.10374 12.4778 5.46172 11.3717 5.99935 10.3094C8.47054 5.42641 13.9346 3.05393 19.0323 4.29366Z" fill="#58CC02"/>
</g>
<defs>
<clipPath id="clip0_2475_1659">
<rect width="36" height="36" fill="white"/>
</clipPath>
</defs>
</svg>
