<svg width="36" height="36" viewBox="0 0 36 36" fill="none" xmlns="http://www.w3.org/2000/svg">
<path d="M6 7.36364C6 6.05823 7.04934 5 8.34375 5H28.6562C29.9507 5 31 6.05824 31 7.36364V18.3939C31 25.3561 25.4036 31 18.5 31C11.5964 31 6 25.3561 6 18.3939V7.36364Z" fill="#FEC701"/>
<mask id="mask0_2475_1648" style="mask-type:luminance" maskUnits="userSpaceOnUse" x="8" y="7" width="21" height="19">
<path d="M28.9252 7H8.21094V25.1176H28.9252V7Z" fill="white"/>
</mask>
<g mask="url(#mask0_2475_1648)">
<path d="M17.016 7.91337C17.6427 6.69554 19.4935 6.69554 20.1202 7.91337L21.9196 11.4098C22.1758 11.9077 22.686 12.2482 23.272 12.3123L27.3997 12.7637C28.8748 12.9251 29.4558 14.6427 28.3492 15.5709L25.3931 18.0508C24.937 18.4333 24.7318 19.0139 24.8538 19.576L25.6433 23.2108C25.9344 24.5508 24.4273 25.6021 23.141 24.9563L19.3819 23.069C18.8735 22.8138 18.2626 22.8138 17.7543 23.069L13.9952 24.9563C12.7089 25.6021 11.2018 24.5508 11.4929 23.2108L12.2823 19.576C12.4044 19.0139 12.1991 18.4333 11.7431 18.0508L8.7869 15.5709C7.68039 14.6427 8.26139 12.9251 9.73647 12.7637L13.8642 12.3123C14.4501 12.2482 14.9603 11.9077 15.2166 11.4098L17.016 7.91337Z" fill="#97712B"/>
</g>
</svg>
