<svg width="37" height="30" viewBox="0 0 37 30" fill="none" xmlns="http://www.w3.org/2000/svg">
<path d="M31.3221 2.48684C28.9638 1.33579 26.4349 0.487746 23.7908 0.00203748C23.7427 -0.00733654 23.6946 0.0160897 23.6698 0.0629432C23.3445 0.678276 22.9843 1.48103 22.732 2.11199C19.8881 1.65908 17.0588 1.65908 14.2732 2.11199C14.0209 1.467 13.6476 0.678276 13.3209 0.0629432C13.2961 0.0176529 13.248 -0.00577328 13.1998 0.00203748C10.5572 0.486194 8.02832 1.33424 5.66861 2.48684C5.64818 2.4962 5.63067 2.51184 5.61905 2.53213C0.822312 10.1552 -0.491715 17.5909 0.152903 24.9344C0.155819 24.9703 0.174779 25.0047 0.20103 25.0265C3.36578 27.4988 6.43138 28.9997 9.44005 29.9945C9.48821 30.0102 9.53923 29.9914 9.56987 29.9492C10.2816 28.9154 10.916 27.8253 11.4599 26.6789C11.492 26.6117 11.4614 26.5321 11.3958 26.5055C10.3895 26.0995 9.4313 25.6044 8.50958 25.0422C8.43668 24.9969 8.43084 24.8859 8.49791 24.8328C8.69187 24.6782 8.88589 24.5173 9.0711 24.3549C9.10461 24.3253 9.1513 24.319 9.1907 24.3377C15.246 27.2786 21.8015 27.2786 27.7854 24.3377C27.8248 24.3175 27.8715 24.3237 27.9064 24.3534C28.0917 24.5158 28.2857 24.6782 28.4811 24.8328C28.5482 24.8859 28.5438 24.9969 28.4709 25.0422C27.5492 25.6153 26.591 26.0995 25.5832 26.504C25.5176 26.5305 25.4884 26.6117 25.5205 26.6789C26.0761 27.8236 26.7106 28.9138 27.4091 29.9477C27.4383 29.9914 27.4908 30.0102 27.5389 29.9945C30.5622 28.9997 33.6278 27.4988 36.7925 25.0265C36.8203 25.0047 36.8378 24.9719 36.8407 24.9359C37.6122 16.446 35.5485 9.07133 31.3702 2.53368C31.3599 2.51184 31.3425 2.4962 31.3221 2.48684ZM12.3642 20.463C10.5411 20.463 9.039 18.6826 9.039 16.496C9.039 14.3095 10.512 12.5291 12.3642 12.5291C14.2309 12.5291 15.7185 14.3252 15.6894 16.496C15.6894 18.6826 14.2163 20.463 12.3642 20.463ZM24.6586 20.463C22.8356 20.463 21.3334 18.6826 21.3334 16.496C21.3334 14.3095 22.8064 12.5291 24.6586 12.5291C26.5254 12.5291 28.0129 14.3252 27.9838 16.496C27.9838 18.6826 26.5254 20.463 24.6586 20.463Z" fill="white"/>
</svg>
