<svg width="34" height="29" viewBox="0 0 34 29" fill="none" xmlns="http://www.w3.org/2000/svg">
<path d="M26.6563 25.4224C26.3223 27.1757 24.7894 28.4443 23.0046 28.4443H10.9681C9.18321 28.4443 7.65029 27.1757 7.31632 25.4224L4.60156 11.1699L16.8856 2.08594L29.3716 11.1668L26.6563 25.4224Z" fill="#FFC800"/>
<path opacity="0.5" fill-rule="evenodd" clip-rule="evenodd" d="M13.7969 23.0008C13.7969 22.3381 14.3341 21.8008 14.9968 21.8008H19.7968C20.4596 21.8008 20.9969 22.3381 20.9969 23.0008C20.9969 23.6636 20.4596 24.2009 19.7968 24.2009H14.9968C14.3341 24.2009 13.7969 23.6636 13.7969 23.0008Z" fill="#945151"/>
<path d="M20.912 15.3389C20.912 17.5 19.16 19.2518 16.9989 19.2518C14.8378 19.2518 13.0859 17.5 13.0859 15.3389C13.0859 13.1777 14.8378 11.4258 16.9989 11.4258C19.16 11.4258 20.912 13.1777 20.912 15.3389Z" fill="#945151"/>
<path d="M17.191 0.199404C17.7249 0.196806 18.2651 0.358333 18.7295 0.695484L32.6901 10.7601C33.8518 11.6042 34.1093 13.2301 33.2653 14.3918C32.4214 15.5532 30.7962 15.8109 29.6345 14.9676L17.1816 5.99004L4.72999 14.9668L4.72901 14.9676C3.56738 15.8107 1.9421 15.553 1.0983 14.3916C0.25428 13.2299 0.511804 11.604 1.6735 10.76L1.67529 10.7586L15.6333 0.695912C16.1031 0.354868 16.6512 0.192958 17.191 0.199404Z" fill="#FF4B4B"/>
</svg>
