<svg width="25" height="30" viewBox="0 0 25 30" fill="none" xmlns="http://www.w3.org/2000/svg">
<g clip-path="url(#clip0_2393_51)">
<g clip-path="url(#clip1_2393_51)">
<path d="M23.932 16.6744L23.956 8.21544C23.961 6.33344 22.75 4.94144 20.944 5.24544C20.587 5.30544 20.002 5.49044 19.694 5.65544L18.003 6.56044L14.753 2.46344C14.2074 1.77583 13.3777 1.375 12.5 1.375C11.6223 1.375 10.7926 1.77583 10.247 2.46344L3.477 10.9994C1.87685 12.9387 1.00114 15.3742 1 17.8884C1 24.0334 6.157 28.9994 12.5 28.9994C18.843 28.9994 24 24.0334 24 17.8884C24 17.4804 23.977 17.0754 23.932 16.6744Z" fill="#1CB0F6" stroke="white" stroke-width="2"/>
<path d="M16.1114 16.2354C16.0949 16.1881 16.0731 16.1433 16.0464 16.1023L13.024 11.4831C12.8255 11.1794 12.5099 11 12.1743 11C11.8387 11 11.5232 11.1794 11.3246 11.4831L8.44708 15.8808C7.52419 16.8981 7.00327 18.2881 7.00089 19.7398C7.00089 22.8026 9.29905 25.2856 12.1333 25.2856C14.9675 25.2856 17.2656 22.8026 17.2656 19.7398C17.2656 18.4099 16.8322 17.1902 16.1114 16.2354Z" fill="#C8DEFF"/>
<path d="M18.1597 19.8388C18.1768 19.7917 18.1884 19.7424 18.1943 19.692L18.8406 14.0074C18.8832 13.6338 18.7647 13.2598 18.5215 13.0002C18.2783 12.7407 17.9395 12.6267 17.6091 12.6932L12.8234 13.6548C11.53 13.6782 10.2989 14.2827 9.40575 15.3328C7.52497 17.5523 7.66559 21.1289 9.71942 23.3206C11.7732 25.5124 14.9634 25.4903 16.8441 23.2708C17.6607 22.3072 18.0957 21.0881 18.1597 19.8388Z" fill="#C8DEFF"/>
</g>
</g>
<defs>
<clipPath id="clip0_2393_51">
<rect width="25" height="30" fill="white" transform="matrix(-1 0 0 1 25 0)"/>
</clipPath>
<clipPath id="clip1_2393_51">
<rect width="25" height="30" fill="white" transform="matrix(-1 0 0 1 25 0)"/>
</clipPath>
</defs>
</svg>
