<svg width="36" height="36" viewBox="0 0 36 36" fill="none" xmlns="http://www.w3.org/2000/svg">
<g clip-path="url(#clip0_2475_1632)">
<mask id="mask0_2475_1632" style="mask-type:luminance" maskUnits="userSpaceOnUse" x="0" y="0" width="36" height="36">
<path d="M36 0H0V36H36V0Z" fill="white"/>
</mask>
<g mask="url(#mask0_2475_1632)">
<path d="M14.4141 19.6162L21.1917 15.7031" stroke="#AFAFAF" stroke-width="2.34783"/>
<path d="M23.4857 7.15318C22.5132 5.46875 20.3593 4.89163 18.6749 5.86413C16.9905 6.83663 16.4134 8.99049 17.3859 10.6749L24.038 22.1968C25.0105 23.8812 27.1644 24.4584 28.8488 23.4859C30.5333 22.5134 31.1104 20.3595 30.1379 18.6751L23.4857 7.15318Z" fill="#1CB0F6"/>
<path d="M11.9623 13.8055C10.9898 12.1211 8.8359 11.544 7.15148 12.5165C5.46706 13.489 4.88993 15.6428 5.86243 17.3273L12.5146 28.8492C13.4871 30.5336 15.641 31.1107 17.3254 30.1382C19.0098 29.1657 19.5869 27.0118 18.6144 25.3274L11.9623 13.8055Z" fill="#1CB0F6"/>
<path d="M29.7904 7.12583C28.8179 5.44141 26.664 4.86428 24.9796 5.83679C23.2952 6.80929 22.7181 8.96315 23.6906 10.6476L27.2123 16.7474C28.1848 18.4318 30.3387 19.009 32.0231 18.0364C33.7075 17.0639 34.2846 14.9101 33.3121 13.2257L29.7904 7.12583Z" fill="#1CB0F6"/>
<path d="M8.78258 19.2547C7.81007 17.5703 5.65621 16.9932 3.97179 17.9657C2.28737 18.9382 1.71024 21.0921 2.68274 22.7765L6.20448 28.8763C7.17699 30.5607 9.33085 31.1379 11.0153 30.1654C12.6997 29.1929 13.2768 27.039 12.3043 25.3546L8.78258 19.2547Z" fill="#1CB0F6"/>
<path opacity="0.3" d="M6.67492 20.3505C6.35075 19.7891 5.6328 19.5967 5.07133 19.9209C4.50985 20.245 4.31748 20.963 4.64164 21.5245L5.42425 22.88C5.74842 23.4414 6.46637 23.6338 7.02785 23.3097C7.58932 22.9855 7.7817 22.2675 7.45753 21.7061L6.67492 20.3505Z" fill="white"/>
<path opacity="0.3" d="M28.589 8.61226C28.2648 8.05078 27.5469 7.85841 26.9854 8.18257C26.4239 8.50674 26.2315 9.2247 26.5557 9.78617L27.3383 11.1417C27.6625 11.7032 28.3804 11.8955 28.9419 11.5714C29.5034 11.2472 29.6958 10.5292 29.3716 9.96777L28.589 8.61226Z" fill="white"/>
<path opacity="0.3" d="M9.79992 14.874C9.47575 14.3125 8.7578 14.1201 8.19633 14.4443C7.63485 14.7685 7.44248 15.4864 7.76664 16.0479L8.94056 18.0812C9.26472 18.6426 9.98268 18.835 10.5442 18.5108C11.1056 18.1867 11.298 17.4687 10.9738 16.9073L9.79992 14.874Z" fill="white"/>
<path opacity="0.3" d="M21.5421 8.61226C21.2179 8.05078 20.5 7.85841 19.9385 8.18257C19.377 8.50674 19.1847 9.2247 19.5088 9.78617L20.6827 11.8194C21.0069 12.3809 21.7249 12.5733 22.2863 12.2491C22.8478 11.925 23.0402 11.207 22.716 10.6455L21.5421 8.61226Z" fill="white"/>
</g>
</g>
<defs>
<clipPath id="clip0_2475_1632">
<rect width="36" height="36" fill="white"/>
</clipPath>
</defs>
</svg>
